<svg width="556" height="550" viewBox="0 0 556 550" fill="none" xmlns="http://www.w3.org/2000/svg">
<path d="M161.074 458.936C161.434 460.422 161.918 461.875 162.52 463.28C171.797 459.643 181.186 456.155 190.685 452.816C190.595 452.432 190.518 452.011 190.416 451.602C189.464 447.409 187.424 443.54 184.501 440.383C180.661 436.384 175.822 434.455 171.072 435.63C166.322 436.806 162.866 440.856 161.291 446.159C160.106 450.326 160.031 454.73 161.074 458.936Z" fill="#403E56"/>
<path d="M174.408 450.988C182.557 449.171 187.189 438.877 184.754 427.996C182.319 417.114 173.739 409.765 165.59 411.582C157.44 413.399 152.808 423.692 155.243 434.574C157.678 445.456 166.258 452.804 174.408 450.988Z" fill="#403E56"/>
<path d="M392.258 344.881C394.077 332.253 387.716 320.891 378.051 319.504C368.387 318.118 359.077 327.231 357.259 339.86C355.44 352.489 361.8 363.85 371.465 365.237C381.13 366.624 390.439 357.51 392.258 344.881Z" fill="#403E56"/>
<path d="M239.268 299.999C237.565 291.055 235.658 282.2 235.35 273.166C235.158 267.838 235.542 262.408 234.851 257.093C234.505 254.537 233.917 251.982 233.328 249.35L230.959 239.128C231.227 237.162 231.153 235.165 230.742 233.225C230.498 232.202 230.181 231.199 229.794 230.222C231.996 227.117 233.814 223.757 235.21 220.217C235.942 218.659 236.259 216.938 236.131 215.221C235.645 211.976 232.496 209.842 229.564 208.245C227.842 207.163 225.909 206.461 223.893 206.188C222.473 206.132 221.06 206.404 219.764 206.982C218.467 207.561 217.321 208.43 216.416 209.523C215.919 206.896 216.081 204.187 216.89 201.639C215.149 200.86 213.395 200.131 211.628 199.416C211.373 197.112 211.283 194.794 211.36 192.478C211.36 189.692 211.449 186.894 211.603 184.108C216.356 182.376 220.463 179.231 223.372 175.099C226.281 170.967 227.852 166.045 227.874 160.994V160.138C229.162 157.823 229.978 155.276 230.272 152.643C230.566 150.011 230.335 147.347 229.59 144.805C227.644 138.148 222.523 132.654 216.365 129.268C210.063 126.003 203.084 124.253 195.985 124.157C193.611 124.018 191.229 124.168 188.892 124.604C186.391 125.217 183.969 126.113 181.672 127.275C178.056 128.704 174.749 130.812 171.93 133.485C167.347 138.366 166.31 145.547 166.809 152.14C167.475 160.803 170.368 169.185 173.722 177.26C174.734 179.996 176.126 182.577 177.857 184.926C178.582 185.738 179.584 186.252 180.668 186.368C181.751 186.483 182.839 186.193 183.72 185.552C183.567 187.69 183.515 189.82 183.567 191.941C180.022 191.667 176.487 192.565 173.504 194.496C172.16 195.455 170.944 196.95 171.187 198.56C172.076 198.593 172.926 198.934 173.592 199.523C174.257 200.113 174.697 200.915 174.836 201.792C174.837 203.226 174.39 204.624 173.556 205.792C173.261 206.341 172.967 206.89 172.659 207.44C169.779 210.506 166.835 214.34 166.579 218.147C166.105 218.147 165.644 218.262 165.183 218.352C162.623 218.837 159.986 219.719 157.425 220.396L138.926 225.251L134.343 226.529L127.008 228.471C122.322 229.749 117.573 230.95 113.425 233.416C109.277 235.882 105.744 239.805 104.925 244.417C104.502 246.743 104.758 249.158 104.259 251.458C104.245 251.563 104.22 251.666 104.182 251.764C103.76 253.22 103.19 254.629 102.479 255.968C98.3699 264.555 95.4255 274.074 96.0144 283.657C96.36 289.56 98.0243 295.31 99.6373 300.983C101.25 306.656 103.004 312.597 104.656 318.411C105.752 322.571 107.143 326.649 108.816 330.613C111.664 336.961 115.888 342.599 121.183 347.122C122.672 348.45 124.335 349.572 126.124 350.457C128.857 351.632 131.839 352.115 134.804 351.862C135.606 351.811 136.4 351.721 137.185 351.594C142.921 350.687 148.259 347.927 153.175 344.822C155.223 343.544 157.233 342.164 159.179 340.72C159.412 342.959 159.84 345.174 160.459 347.339C161.022 348.788 161.296 350.333 161.266 351.888C161.022 354.034 159.461 355.797 158.705 357.803C156.99 362.058 158.705 366.748 159.038 371.36C159.307 375.628 158.27 379.87 157.438 384.074C156.018 391.085 155.17 398.2 154.903 405.348C154.897 408.053 154.717 410.754 154.366 413.436C153.751 417.269 152.292 420.872 152.036 424.693C151.651 430.66 154.225 436.486 153.994 442.453C153.725 449.455 149.603 456.253 151.037 463.114C151.216 463.97 151.703 464.967 152.496 465.184L152.112 465.529C150.922 466.628 149.77 468.647 151.114 469.528C151.422 469.718 151.767 469.84 152.125 469.886C154.199 470.308 156.299 470.704 158.385 471.074C158.335 472.999 158.576 474.921 159.102 476.773C159.486 477.054 159.87 477.297 160.254 477.527C160.067 477.855 160.007 478.24 160.085 478.61C160.162 478.98 160.373 479.308 160.677 479.533C160.989 479.712 161.332 479.829 161.688 479.878C178.888 483.435 196.456 484.907 214.01 484.261C217.146 484.146 220.411 483.916 223.099 482.319C225.787 480.721 227.58 477.31 226.312 474.499C225.186 472.02 222.228 470.947 219.578 470.129L216.468 469.171C216.866 468.463 217.098 467.675 217.147 466.865C217.195 466.055 217.06 465.244 216.749 464.494C215.623 462.015 212.665 460.942 210.015 460.124L202.846 457.901C201.92 457.672 201.049 457.259 200.286 456.687C199.772 456.177 199.301 455.626 198.878 455.039C197.841 453.858 196.478 453.009 194.96 452.598C194.886 451.082 194.92 449.562 195.063 448.05L197.073 423.926C197.521 418.457 197.956 412.887 196.676 407.546C196.164 405.386 195.396 403.163 195.844 400.991C196.625 397.439 200.363 395.471 202.923 392.839C206.764 388.84 207.954 383.154 208.838 377.749C212.489 355.415 213.636 332.744 212.256 310.157C220.268 307.887 228.516 306.55 236.835 306.17C237.436 306.182 238.022 305.982 238.49 305.606C238.958 305.23 239.279 304.701 239.396 304.113C239.699 302.753 239.655 301.338 239.268 299.999ZM199.313 301.174C199.313 300.944 199.403 300.714 199.441 300.484L200.004 301.187L199.313 301.174Z" fill="url(#paint0_linear)"/>
<path d="M186.281 178.883C186.114 181.195 185.295 183.431 185 185.744C184.668 188.299 185.001 190.855 184.796 193.41C184.799 196.011 183.767 198.506 181.928 200.348C193.284 201.328 204.468 203.745 215.213 207.542C211.961 203.543 211.872 197.959 211.961 192.823C212.064 185.233 212.192 177.49 214.675 170.335C207.27 168.685 199.603 168.585 192.157 170.041C190.531 170.36 185.641 170.156 184.911 171.663C184.424 172.788 186.409 177.183 186.281 178.883Z" fill="#A2626B"/>
<path opacity="0.1" d="M186.281 178.883C186.114 181.195 185.295 183.431 185 185.744C184.668 188.299 185.001 190.855 184.796 193.41C184.799 196.011 183.767 198.506 181.928 200.348C193.284 201.328 204.468 203.745 215.213 207.542C211.961 203.543 211.872 197.959 211.961 192.823C212.064 185.233 212.192 177.49 214.675 170.335C207.27 168.685 199.603 168.585 192.157 170.041C190.531 170.36 185.641 170.156 184.911 171.663C184.424 172.788 186.409 177.183 186.281 178.883Z" fill="#010101"/>
<path d="M199.71 455.026C200.094 455.616 200.521 456.175 200.99 456.7C201.749 457.28 202.621 457.693 203.55 457.914L210.553 460.137C213.113 460.968 216.032 462.028 217.133 464.507C218.413 467.305 216.608 470.717 213.984 472.301C211.36 473.885 208.159 474.128 205.099 474.256C187.917 474.918 170.718 473.463 153.892 469.924C153.547 469.877 153.216 469.759 152.919 469.579C151.639 468.685 152.714 466.666 153.879 465.58C158.385 461.313 163.288 456.84 169.421 455.857C172.647 455.333 175.885 455.55 179.086 454.783C181.39 454.221 183.567 453.276 185.871 452.701C190.288 451.666 196.689 451.282 199.71 455.026Z" fill="#47465B"/>
<path opacity="0.1" d="M199.71 455.026C200.094 455.616 200.521 456.175 200.99 456.7C201.749 457.28 202.621 457.693 203.55 457.914L210.553 460.137C213.113 460.968 216.032 462.028 217.133 464.507C218.413 467.305 216.608 470.717 213.984 472.301C211.36 473.885 208.159 474.128 205.099 474.256C187.917 474.918 170.718 473.463 153.892 469.924C153.547 469.877 153.216 469.759 152.919 469.579C151.639 468.685 152.714 466.666 153.879 465.58C158.385 461.313 163.288 456.84 169.421 455.857C172.647 455.333 175.885 455.55 179.086 454.783C181.39 454.221 183.567 453.276 185.871 452.701C190.288 451.666 196.689 451.282 199.71 455.026Z" fill="#010101"/>
<path d="M164.607 304.292C161.161 313.387 160.948 323.387 164.005 332.619C161.675 332.364 160.677 335.52 160.728 337.858C160.817 341.123 161.316 344.364 162.213 347.505C162.76 348.958 163.025 350.502 162.994 352.054C162.751 354.2 161.227 355.964 160.434 357.97C158.769 362.212 160.434 366.914 160.766 371.501C161.035 375.768 160.011 379.998 159.192 384.201C157.834 391.206 157.029 398.307 156.785 405.437C156.783 408.142 156.607 410.843 156.26 413.525C155.658 417.359 154.25 420.949 153.994 424.769C153.61 430.711 156.132 436.55 155.902 442.504C155.633 449.494 151.6 456.291 153.008 463.165C153.213 464.124 153.751 465.274 154.75 465.286C164.812 465.414 174.221 462.616 184.194 464.072C185.205 441.073 186.204 417.959 190.736 395.369C194.743 375.27 201.541 355.389 200.9 334.894C200.529 323.164 197.738 311.665 196.049 300.063C185.397 297.699 174.251 299.199 164.607 304.292Z" fill="#BBBDC8"/>
<path opacity="0.1" d="M164.607 304.292C161.161 313.387 160.948 323.387 164.005 332.619C161.675 332.364 160.677 335.52 160.728 337.858C160.817 341.123 161.316 344.364 162.213 347.505C162.76 348.958 163.025 350.502 162.994 352.054C162.751 354.2 161.227 355.964 160.434 357.97C158.769 362.212 160.434 366.914 160.766 371.501C161.035 375.768 160.011 379.998 159.192 384.201C157.834 391.206 157.029 398.307 156.785 405.437C156.783 408.142 156.607 410.843 156.26 413.525C155.658 417.359 154.25 420.949 153.994 424.769C153.61 430.711 156.132 436.55 155.902 442.504C155.633 449.494 151.6 456.291 153.008 463.165C153.213 464.124 153.751 465.274 154.75 465.286C164.812 465.414 174.221 462.616 184.194 464.072C185.205 441.073 186.204 417.959 190.736 395.369C194.743 375.27 201.541 355.389 200.9 334.894C200.529 323.164 197.738 311.665 196.049 300.063C185.397 297.699 174.251 299.199 164.607 304.292Z" fill="#010101"/>
<path d="M209.094 465.018C209.478 465.607 209.906 466.166 210.374 466.692C211.127 467.294 212 467.729 212.934 467.97L219.937 470.18C222.497 471.011 225.416 472.084 226.517 474.563C227.797 477.361 225.992 480.76 223.368 482.357C220.743 483.954 217.633 484.133 214.522 484.261C197.361 484.922 180.184 483.471 163.378 479.942C163.033 479.888 162.702 479.767 162.405 479.584C161.125 478.69 162.213 476.684 163.365 475.598C167.872 471.33 172.775 466.858 178.907 465.874C182.133 465.337 185.372 465.555 188.572 464.788C190.877 464.239 193.053 463.28 195.357 462.718C199.633 461.658 206.034 461.261 209.094 465.018Z" fill="#47465B"/>
<path d="M168.089 304.956C165.658 308.427 164.608 312.677 165.145 316.878C165.672 321.036 166.726 325.11 168.281 329.003C166.451 330.69 166.822 333.603 167.065 336.082C167.948 345.294 164.735 354.481 165.209 363.719C165.401 367.553 166.246 371.386 166.489 375.321C166.576 379.575 166.297 383.828 165.657 388.035C162.419 415.037 160.637 442.194 160.318 469.388C160.185 471.894 160.409 474.407 160.984 476.85C165.836 480.415 171.93 480.887 177.806 479.559C183.682 478.23 189.046 475.253 194.32 472.314C197.208 470.828 199.943 469.065 202.488 467.05C203.268 466.501 203.844 465.71 204.127 464.801C204.69 462.13 200.977 460.968 198.852 459.204C195.754 456.649 195.793 452.036 196.113 448.063L198.058 423.964C198.494 418.509 198.916 412.95 197.674 407.609C197.175 405.45 196.394 403.24 196.855 401.067C197.623 397.528 201.285 395.56 203.768 392.928C207.532 388.929 208.697 383.256 209.567 377.864C213.643 352.252 214.504 326.232 212.128 300.408C207.225 302.107 201.413 301.174 196.228 301.583C191.043 301.992 185.986 303.704 180.673 303.845C176.244 303.921 170.765 301.545 168.089 304.956Z" fill="#BBBDC8"/>
<path d="M203.435 186.089C217.081 186.089 228.143 175.048 228.143 161.429C228.143 147.809 217.081 136.768 203.435 136.768C189.79 136.768 178.728 147.809 178.728 161.429C178.728 175.048 189.79 186.089 203.435 186.089Z" fill="#A2626B"/>
<path d="M217.402 201.984C209.486 198.357 201.232 195.515 192.758 193.5C186.793 192.082 179.957 191.225 174.977 194.778C173.696 195.736 172.416 197.231 172.723 198.841C173.605 198.87 174.447 199.211 175.099 199.804C175.751 200.396 176.17 201.201 176.282 202.073C176.271 203.505 175.824 204.899 175.002 206.073L169.241 216.729C168.138 218.653 167.187 220.661 166.399 222.734C165.392 226.175 164.837 229.731 164.748 233.314L164.069 242.986C163.496 249.073 163.402 255.195 163.788 261.296C164.21 265.883 165.17 270.496 164.517 275.057C163.993 278.737 162.431 282.174 161.56 285.79C159.909 292.588 160.664 300.037 157.476 306.234C158.773 305.648 160.231 305.517 161.611 305.864C171.277 307.652 178.881 315.268 188.278 318.181C190.646 314.718 193.859 312.176 196.509 308.968C198.503 306.568 199.828 303.686 200.35 300.612C202.368 302.963 204.02 305.604 205.253 308.445C205.467 309.166 205.834 309.832 206.328 310.4C207.609 311.677 209.657 311.153 211.347 310.642C219.632 308.165 228.194 306.732 236.835 306.375C237.427 306.387 238.004 306.188 238.462 305.813C238.92 305.438 239.228 304.912 239.332 304.33C239.656 302.979 239.634 301.569 239.268 300.229C237.604 291.349 235.747 282.443 235.427 273.396C235.248 268.055 235.606 262.651 234.941 257.335C234.608 254.78 234.019 252.224 233.443 249.669L228.681 228.522C228.412 227.347 227.144 226.568 226.607 225.481C224.418 221.061 220.206 217.815 218.068 213.42C216.422 209.825 216.185 205.745 217.402 201.984Z" fill="#47465B"/>
<path d="M182.747 171.293C182.714 170.949 182.795 170.603 182.978 170.309C183.243 170.035 183.573 169.833 183.938 169.721C184.926 169.241 185.734 168.457 186.241 167.483C186.748 166.51 186.928 165.4 186.754 164.316L189.097 163.831L189.174 155.705C192.643 153.788 197.38 155.232 200.696 152.983C202.526 151.705 203.474 149.533 204.536 147.591C205.599 145.649 207.327 143.758 209.567 143.553C208.796 145.5 208.465 147.593 208.598 149.683C208.73 151.772 209.324 153.807 210.335 155.641C212.669 154.456 214.618 152.635 215.956 150.389L217.12 157.046C217.144 157.458 217.322 157.846 217.62 158.132C218.221 158.579 219.041 158.03 219.578 157.468L222.6 154.503C223.866 157.693 224.726 161.028 225.16 164.431C230.127 159.614 231.676 151.884 229.769 145.265C227.631 138.61 222.992 133.041 216.826 129.728C210.686 126.471 203.858 124.72 196.906 124.617C194.588 124.491 192.263 124.641 189.98 125.064C187.533 125.691 185.163 126.587 182.914 127.735C179.373 129.17 176.143 131.274 173.402 133.932C168.908 138.813 167.91 145.981 168.396 152.6C169.062 161.263 171.891 169.619 175.169 177.669C176.147 180.402 177.509 182.984 179.214 185.335C181.915 188.747 188.559 185.91 187.714 179.151C187.164 174.334 182.747 176.187 182.747 171.293Z" fill="#403E56"/>
<path d="M192.093 303.308C183.754 320.287 170.959 334.691 155.07 344.988C150.269 348.093 145.046 350.853 139.438 351.76C138.67 351.888 137.902 351.964 137.121 352.028C134.225 352.263 131.316 351.771 128.659 350.597C126.9 349.713 125.272 348.59 123.82 347.262C118.628 342.721 114.501 337.093 111.735 330.779C110.106 326.815 108.754 322.742 107.69 318.59C106.051 312.789 104.417 306.988 102.787 301.187C100.987 295.551 99.8027 289.738 99.2532 283.848C98.7155 274.265 101.596 264.772 105.654 256.058C106.349 254.716 106.907 253.307 107.318 251.854C107.335 251.75 107.361 251.647 107.395 251.547C107.869 249.247 107.626 246.845 108.061 244.532C108.867 239.869 112.311 235.997 116.369 233.544C120.428 231.091 125.049 229.826 129.645 228.599L136.814 226.67L141.256 225.469L159.345 220.613C161.906 219.949 164.377 219.067 166.924 218.62C169.766 218.083 169.741 218.365 169.958 221.176C170.368 226.197 170.24 231.142 171.238 236.112C172.25 240.865 174.029 245.452 175.361 250.167C178.74 261.935 179.304 274.329 181.954 286.302C182.568 289.023 183.4 291.924 185.602 293.623C188.163 295.629 192.362 296.178 193.027 299.258C193.123 300.67 192.798 302.08 192.093 303.308Z" fill="#FFD567"/>
<path opacity="0.1" d="M139.438 351.773C138.67 351.9 137.902 351.977 137.121 352.041C134.227 352.283 131.319 351.8 128.659 350.635C126.9 349.751 125.272 348.629 123.82 347.3C118.628 342.759 114.501 337.131 111.735 330.818C110.106 326.853 108.754 322.78 107.69 318.628C106.051 312.827 104.417 307.026 102.787 301.225C100.987 295.59 99.8027 289.776 99.2532 283.887C98.7155 274.304 101.596 264.81 105.654 256.096C106.349 254.754 106.907 253.346 107.318 251.892C107.335 251.788 107.361 251.685 107.395 251.586C118.29 253.502 131.36 274.304 138.12 301.57C143.061 321.989 143.266 340.733 139.438 351.773Z" fill="#010101"/>
<path opacity="0.1" d="M159.128 280.028L157.31 280.347C155.428 275.428 153.559 270.509 151.37 265.717C150.218 263.162 148.989 260.76 148.029 258.179C144.418 248.276 145.033 236.521 138.35 228.369C137.875 227.758 137.329 227.205 136.724 226.721L141.18 225.533C145.07 231.682 147.816 238.482 149.283 245.606C149.817 249.112 150.587 252.578 151.588 255.981C152.583 258.519 153.724 260.998 155.006 263.405C157.553 268.592 159.461 274.265 159.128 280.028Z" fill="#010101"/>
<path d="M176.884 204.948C179.256 202.853 182.053 201.292 185.084 200.373C188.115 199.453 191.309 199.197 194.448 199.62C198.092 200.368 201.584 201.72 204.779 203.619C211.18 207.005 217.466 210.903 222.075 216.397C224.841 219.917 227.135 223.783 228.898 227.896C229.765 229.69 230.438 231.57 230.908 233.506C232.534 241.031 228.527 248.519 224.686 255.227L217.274 268.004C214.047 274.011 210.271 279.709 205.996 285.024C203.96 287.413 201.707 289.611 199.479 291.821L189.648 301.545C189.471 301.752 189.24 301.906 188.982 301.992C188.768 302.006 188.553 301.971 188.354 301.892C188.155 301.812 187.976 301.689 187.83 301.532L184.578 298.977C187.571 296.921 190.35 294.571 192.874 291.962C197.004 287.462 200.755 282.628 204.088 277.511L214.893 261.871C218.055 257.297 221.294 252.25 220.999 246.717C220.703 244.053 219.949 241.46 218.772 239.051C216.92 234.707 214.906 230.448 212.729 226.274C210.406 221.483 207.508 216.991 204.101 212.896C200.662 208.784 196.119 205.739 191.005 204.118C189.479 203.619 187.86 203.466 186.268 203.671C182.76 204.246 180.251 207.261 178.036 210.059L171.264 218.722C169.715 220.69 168.307 222.964 168.217 219.233C168.051 213.854 173.44 208.373 176.884 204.948Z" fill="#FFD567"/>
<path d="M178.971 263.392C180.251 268.503 182.286 274.355 187.228 276.297C190.736 277.677 194.845 276.552 197.866 274.291C200.785 271.884 203.218 268.943 205.035 265.628C206.705 262.735 208.548 259.944 210.553 257.271C214.509 252.314 219.899 248.391 222.574 242.616C223.355 240.891 223.854 239.051 224.802 237.403C225.758 235.883 226.837 234.442 228.028 233.097C231.099 229.293 233.557 225.034 235.312 220.473C236.032 218.915 236.345 217.201 236.221 215.49C235.747 212.244 232.662 210.11 229.82 208.513C228.137 207.438 226.242 206.737 224.264 206.456C222.808 206.405 221.362 206.708 220.05 207.341C218.739 207.973 217.601 208.915 216.736 210.085C215.022 212.446 214.062 215.27 213.984 218.186C213.779 221.738 214.483 225.43 213.318 228.791C212.689 230.359 211.826 231.824 210.758 233.135C207.008 238.148 202.364 242.427 197.06 245.759C196.917 243.236 196.373 240.752 195.447 238.399C194.935 237.122 184.988 238.399 183.695 238.617C181.134 238.987 176.154 239.281 174.541 241.721C172.928 244.162 174.925 248.263 175.578 250.666L178.971 263.392Z" fill="#A2626B"/>
<path d="M178.74 207.389C177.261 208.61 175.883 209.947 174.618 211.388C171.764 215.066 170.095 219.521 169.83 224.165C169.602 228.8 169.959 233.445 170.893 237.99C171.61 242.079 172.467 246.142 173.453 250.193C173.693 248.676 174.343 247.253 175.333 246.077C176.323 244.902 177.617 244.019 179.073 243.523C181.994 242.573 185.111 242.388 188.124 242.986C192.051 243.571 195.883 244.675 199.518 246.27L200.926 226.568C201.233 223.91 201.233 221.226 200.926 218.569C200.479 216.106 199.514 213.766 198.092 211.704C196.671 209.643 194.826 207.906 192.682 206.609C187.279 203.402 183.541 203.159 178.74 207.389Z" fill="#47465B"/>
<path d="M430.989 303.283C430.344 297.946 428.785 292.759 426.381 287.95C424.708 285.104 423.302 282.11 422.182 279.006C421.426 276.45 421.273 273.767 420.671 271.173C420.069 268.579 419.007 266.062 418.111 263.571C412.068 245.58 416.6 225.89 414.654 207.031C413.924 200.08 411.786 192.452 405.693 188.823C402.108 186.664 397.794 186.332 393.569 186.153L391.636 186.063L388.538 185.91C384.082 185.514 379.593 185.703 375.186 186.472C369.835 187.635 363.51 191.392 361.821 196.835C360.899 196.362 359.977 195.94 359.119 195.557C355.681 194.032 352.077 192.913 348.379 192.222C351.549 191.427 354.61 190.247 357.493 188.708C364.176 184.875 365.725 173.503 367.082 165.926C368.439 158.349 367.21 150.517 364.944 143.144C364.197 140.533 363.18 138.007 361.91 135.606C358.513 129.508 352.829 125.006 346.107 123.09C339.386 121.173 332.177 121.998 326.065 125.384C325.501 125.708 324.951 126.04 324.413 126.381C318.091 130.787 312.439 136.08 307.63 142.097C306.964 142.889 304.174 145.674 305.07 146.85C305.582 147.514 307.297 146.978 309.102 146.185C306.659 151.715 306.336 157.947 308.193 163.699C310.05 169.451 313.959 174.322 319.177 177.388L319.843 183.508C319.92 185.552 319.958 187.597 319.984 189.641C319.984 191.072 319.984 192.542 319.984 194.011C317.207 197.133 313.817 199.651 310.024 201.409C313.116 201.805 316.256 201.295 319.062 199.94C318.588 201.575 317.792 203.1 316.719 204.424C317.526 204.143 318.32 203.901 319.126 203.632C318.036 205.355 317.292 207.273 316.937 209.28C315.237 211.758 313.763 214.384 312.533 217.125C311.97 218.403 311.471 219.681 311.023 220.958V221.048C310.574 222.325 310.178 223.603 309.832 224.881C309.678 225.52 309.525 226.159 309.397 226.785V226.925C309.128 228.203 308.91 229.481 308.731 230.758V231.027C308.654 231.627 308.59 232.241 308.539 232.854V232.943C308.539 233.621 308.449 234.221 308.424 234.898V237.198C308.424 238.476 308.513 239.754 308.629 241.031C308.603 241.188 308.603 241.348 308.629 241.504C308.629 242.015 308.744 242.526 308.808 243.05C308.783 243.168 308.783 243.29 308.808 243.408C308.897 244.021 309 244.686 309.102 245.248C309.121 245.386 309.151 245.523 309.192 245.657C309.294 246.142 309.384 246.641 309.499 247.126L309.627 247.637C309.768 248.251 309.922 248.915 310.101 249.465C310.19 249.809 310.293 250.129 310.408 250.499C310.724 251.759 310.947 253.04 311.074 254.333L307.425 254.448C299.599 254.678 291.786 255.031 283.985 255.508C283.012 251.764 279.683 249.592 275.497 249.12C274.834 249.043 274.167 249.005 273.5 249.005C274.22 248.392 274.861 247.692 275.408 246.922C276.134 245.928 276.653 244.798 276.931 243.6C275.852 244.205 274.911 245.028 274.166 246.015C273.923 246.347 273.705 246.679 273.5 246.986V244.992C273.5 244.91 273.468 244.831 273.411 244.771C273.354 244.711 273.276 244.676 273.193 244.673H272.681C272.639 244.669 272.597 244.675 272.557 244.689C272.517 244.702 272.481 244.725 272.451 244.754C272.421 244.783 272.397 244.818 272.381 244.857C272.366 244.896 272.359 244.938 272.361 244.98V249.043H272.002C271.554 249.043 271.132 249.145 270.722 249.222C266.177 250.065 262.836 252.978 262.836 257.885C262.839 259.43 263.178 260.955 263.83 262.356C264.482 263.757 265.432 265 266.613 265.998C266.806 267.527 267.149 269.034 267.637 270.496C267.931 272.005 268.798 273.342 270.056 274.227C270.877 274.603 271.779 274.77 272.681 274.712C280.106 274.712 287.134 271.288 294.521 270.713C299.091 270.343 303.674 271.058 308.257 270.918C308.923 270.918 309.538 270.841 310.267 270.79C303.994 301.749 296.416 333.092 300.384 364.371C300.64 366.441 301.05 368.702 302.599 370.108C304.673 371.986 307.848 371.68 310.613 371.45C318.218 370.748 325.887 371.357 333.285 373.251C334.325 373.532 335.415 373.571 336.473 373.366C336.698 373.316 336.921 373.252 337.138 373.175L337.33 373.098L337.727 372.932L337.919 372.83L338.252 372.625C338.311 372.591 338.366 372.553 338.419 372.51C338.531 372.432 338.638 372.347 338.739 372.255L338.828 372.165C338.957 372.047 339.077 371.919 339.187 371.782L339.264 371.667C339.343 371.565 339.416 371.459 339.481 371.347C339.516 371.299 339.546 371.248 339.571 371.194C339.627 371.095 339.678 370.992 339.724 370.887C339.754 370.83 339.78 370.77 339.801 370.709C339.801 370.645 339.891 370.491 339.929 370.376C339.968 370.261 339.929 370.274 339.929 370.21C339.99 370.049 340.033 369.882 340.057 369.712V369.61C340.07 369.463 340.096 369.318 340.134 369.175C340.141 369.103 340.141 369.03 340.134 368.958V367.259C340.124 366.669 340.081 366.08 340.006 365.495C340.485 365.635 340.972 365.742 341.465 365.815C341.923 365.881 342.385 365.915 342.848 365.917H342.912C343.136 365.927 343.36 365.906 343.578 365.853C343.772 365.83 343.965 365.791 344.154 365.738H344.372C344.549 365.689 344.721 365.62 344.884 365.534H344.96C345.1 365.456 345.233 365.366 345.357 365.265C345.486 365.15 345.601 365.022 345.703 364.882V364.78C345.805 364.622 345.883 364.45 345.933 364.269C346.317 362.991 345.447 361.534 346.842 360.346C348.348 364.531 349.321 368.888 349.736 373.315C349.592 374.928 349.921 376.549 350.683 377.979C351.296 378.71 351.963 379.393 352.68 380.023C354.728 382.234 354.779 385.556 354.639 388.546C354.575 389.747 354.511 390.948 354.421 392.162C353.322 408.258 350.041 424.132 344.666 439.348C344.15 440.968 343.467 442.531 342.63 444.012C341.274 446.112 339.579 447.973 337.612 449.519C334.817 451.905 331.819 454.043 328.651 455.908C327.042 456.753 325.523 457.759 324.119 458.91C324.054 458.762 324.003 458.608 323.965 458.45C323.888 458.144 323.786 457.786 323.492 457.671C323.259 457.619 323.015 457.66 322.813 457.786C319.689 459.153 316.553 460.52 313.545 462.13C312.025 462.823 310.684 463.854 309.627 465.146C309.114 465.805 308.816 466.606 308.773 467.44C308.729 468.273 308.943 469.1 309.384 469.809C310.393 470.871 311.762 471.518 313.224 471.624C315.081 471.956 316.937 472.186 318.806 472.365C317.846 472.924 317.007 473.666 316.335 474.55C315.857 475.217 315.59 476.011 315.567 476.83C315.544 477.65 315.767 478.458 316.207 479.15C317.226 480.198 318.59 480.842 320.048 480.964C331.89 483.047 344.026 481.628 356.047 481.271C359.951 481.143 363.946 481.117 367.645 479.852C368.378 479.638 369.061 479.282 369.655 478.805C371.332 477.323 371.166 474.729 370.872 472.518L369.655 463.574C369.473 463.59 369.293 463.624 369.118 463.676C370.145 455.211 371.984 446.863 374.61 438.748C378.681 426.124 384.736 413.679 384.659 400.416V399.458C384.544 395.318 383.801 391.229 383.379 387.102C382.773 380.198 382.564 373.266 382.752 366.339C382.7 363.622 382.893 360.907 383.328 358.225C383.322 358.136 383.322 358.046 383.328 357.957L394.427 357.663C395.653 357.725 396.877 357.498 397.999 356.998C398.529 356.764 398.954 356.342 399.19 355.813C399.427 355.284 399.458 354.687 399.279 354.136C400.47 354.612 401.746 354.841 403.029 354.808C404.312 354.775 405.574 354.482 406.74 353.947C407.906 353.411 408.95 352.644 409.808 351.693C410.667 350.741 411.323 349.625 411.735 348.412C411.825 348.054 411.902 347.709 411.966 347.352V347.262C412.014 346.936 412.044 346.608 412.055 346.278V346.112C412.131 343.822 411.775 341.538 411.005 339.379C408.74 332.99 405.129 327.112 401.737 321.209C400.03 318.143 398.323 315.051 396.616 311.933L398.076 313.798C398.578 314.556 399.243 315.193 400.021 315.664C402.735 317.057 405.565 314.258 408.317 312.955C411.966 311.243 416.241 312.252 420.274 312.546C424.307 312.84 429.171 311.792 430.605 308.049C431.127 306.516 431.259 304.878 430.989 303.283ZM361.449 203.159C361.449 204.578 361.552 206.022 361.667 207.478C360.306 205.269 358.737 203.194 356.981 201.281L361.449 203.159Z" fill="url(#paint1_linear)"/>
<path d="M274.217 247.241C274.952 246.263 275.88 245.445 276.944 244.839C276.672 246.035 276.162 247.165 275.446 248.161C274.281 249.746 273.065 250.832 272.719 250.576C272.374 250.321 273.039 248.813 274.217 247.241Z" fill="#9BCC5F"/>
<path opacity="0.1" d="M274.371 247.356C274.908 246.631 275.588 246.023 276.368 245.567C276.165 246.455 275.786 247.294 275.254 248.033C274.383 249.209 273.475 250.027 273.244 249.822C273.014 249.618 273.5 248.532 274.371 247.356Z" fill="#010101"/>
<path d="M272.591 245.912H273.257C273.343 245.912 273.426 245.946 273.488 246.005C273.55 246.065 273.586 246.146 273.59 246.232V253.783H272.31V246.232C272.312 246.154 272.341 246.08 272.392 246.021C272.444 245.963 272.514 245.924 272.591 245.912Z" fill="#F7997E"/>
<path d="M284.203 259.111C284.252 260.543 284.013 261.969 283.498 263.306C282.984 264.643 282.205 265.863 281.208 266.893C280.211 267.923 279.016 268.742 277.695 269.302C276.374 269.861 274.954 270.15 273.519 270.15C272.084 270.15 270.664 269.861 269.343 269.302C268.022 268.742 266.828 267.923 265.831 266.893C264.834 265.863 264.055 264.643 263.541 263.306C263.026 261.969 262.786 260.543 262.836 259.111C262.836 254.23 266.139 251.343 270.632 250.487C271.588 250.318 272.556 250.233 273.526 250.231C274.193 250.231 274.86 250.27 275.523 250.346C280.49 250.959 284.203 253.911 284.203 259.111Z" fill="#F04E4E"/>
<path opacity="0.1" d="M275.548 250.346C275.356 250.717 274.268 251.023 272.988 251.023C272.162 251.079 271.337 250.902 270.607 250.512C271.562 250.344 272.53 250.258 273.5 250.257C274.184 250.246 274.868 250.276 275.548 250.346Z" fill="#010101"/>
<path opacity="0.1" d="M275.331 269.525C273.928 269.525 272.538 269.249 271.242 268.713C269.946 268.176 268.768 267.39 267.777 266.399C266.785 265.408 265.999 264.232 265.463 262.938C264.927 261.643 264.652 260.256 264.654 258.856C264.654 254.064 267.816 251.189 272.194 250.295C271.679 250.332 271.166 250.396 270.658 250.487C266.165 251.343 262.862 254.23 262.862 259.111C262.862 261.941 263.988 264.655 265.993 266.656C267.997 268.656 270.716 269.78 273.551 269.78C274.358 269.783 275.162 269.689 275.945 269.499L275.331 269.525Z" fill="#010101"/>
<path d="M322.429 466.883C323.901 468.225 326.154 468.161 328.164 468.046L337.292 467.369C344.538 466.845 352.04 466.245 358.441 462.795C359.11 462.499 359.708 462.063 360.195 461.517C360.703 460.644 360.968 459.652 360.963 458.642C361.823 448.769 363.79 439.023 366.826 429.586C370.833 417.026 376.837 404.645 376.76 391.497V390.552C376.645 386.425 375.915 382.361 375.48 378.26C374.879 371.39 374.673 364.492 374.866 357.599C374.81 354.896 374.998 352.193 375.429 349.524C375.851 347.364 377.439 345.192 376.466 343.288C374.584 339.583 367.786 338.177 364.125 338.088C359.196 337.922 354.344 339.2 349.595 340.49C348.108 340.758 346.71 341.385 345.524 342.317C344.171 343.833 343.476 345.823 343.591 347.85C343.335 356.794 348.468 365.023 348.878 373.903C348.738 375.515 349.062 377.133 349.812 378.567C350.425 379.293 351.093 379.973 351.809 380.598C353.819 382.796 353.871 386.105 353.73 389.07C353.73 390.271 353.615 391.472 353.525 392.673C352.426 408.655 349.184 424.418 343.885 439.54C343.37 441.161 342.696 442.727 341.875 444.216C340.541 446.303 338.867 448.151 336.921 449.685C334.169 452.03 331.223 454.138 328.113 455.984C325.934 457.03 323.991 458.508 322.403 460.329C320.982 462.296 320.662 465.248 322.429 466.883Z" fill="#F7A7A8"/>
<path opacity="0.1" d="M322.429 466.883C323.901 468.225 326.154 468.161 328.164 468.046L337.292 467.369C344.538 466.845 352.04 466.245 358.441 462.795C359.11 462.499 359.708 462.063 360.195 461.517C360.703 460.644 360.968 459.652 360.963 458.642C361.823 448.769 363.79 439.023 366.826 429.586C370.833 417.026 376.837 404.645 376.76 391.497V390.552C376.645 386.425 375.915 382.361 375.48 378.26C374.879 371.39 374.673 364.492 374.866 357.599C374.81 354.896 374.998 352.193 375.429 349.524C375.851 347.364 377.439 345.192 376.466 343.288C374.584 339.583 367.786 338.177 364.125 338.088C359.196 337.922 354.344 339.2 349.595 340.49C348.108 340.758 346.71 341.385 345.524 342.317C344.171 343.833 343.476 345.823 343.591 347.85C343.335 356.794 348.468 365.023 348.878 373.903C348.738 375.515 349.062 377.133 349.812 378.567C350.425 379.293 351.093 379.973 351.809 380.598C353.819 382.796 353.871 386.105 353.73 389.07C353.73 390.271 353.615 391.472 353.525 392.673C352.426 408.655 349.184 424.418 343.885 439.54C343.37 441.161 342.696 442.727 341.875 444.216C340.541 446.303 338.867 448.151 336.921 449.685C334.169 452.03 331.223 454.138 328.113 455.984C325.934 457.03 323.991 458.508 322.403 460.329C320.982 462.296 320.662 465.248 322.429 466.883Z" fill="#010101"/>
<path d="M322.429 466.883C323.901 468.225 326.154 468.161 328.164 468.046L337.292 467.369C344.538 466.845 352.04 466.245 358.441 462.795C359.11 462.499 359.708 462.063 360.195 461.517C360.703 460.644 360.968 459.652 360.963 458.642C361.823 448.769 363.79 439.023 366.826 429.586C370.833 417.026 376.837 404.645 376.76 391.497C369.042 392.353 361.278 392.737 353.512 392.647C352.42 408.638 349.182 424.409 343.885 439.54C343.372 441.157 342.699 442.72 341.875 444.204C340.541 446.294 338.867 448.147 336.921 449.685C334.169 452.03 331.223 454.138 328.113 455.984C325.934 457.03 323.991 458.508 322.403 460.329C320.982 462.271 320.662 465.248 322.429 466.883Z" fill="#EEEFF2"/>
<path opacity="0.1" d="M322.429 466.883C323.901 468.225 326.154 468.161 328.164 468.046L337.292 467.369C344.538 466.845 352.04 466.245 358.441 462.795C359.11 462.499 359.708 462.063 360.195 461.517C360.703 460.644 360.968 459.652 360.963 458.642C361.823 448.769 363.79 439.023 366.826 429.586C370.833 417.026 376.837 404.645 376.76 391.497C369.042 392.353 361.278 392.737 353.512 392.647C352.42 408.638 349.182 424.409 343.885 439.54C343.372 441.157 342.699 442.72 341.875 444.204C340.541 446.294 338.867 448.147 336.921 449.685C334.169 452.03 331.223 454.138 328.113 455.984C325.934 457.03 323.991 458.508 322.403 460.329C320.982 462.271 320.662 465.248 322.429 466.883Z" fill="#010101"/>
<path d="M342.592 464.073C344.783 463.29 346.889 462.288 348.878 461.083L358.94 455.409C359.848 454.821 360.861 454.414 361.923 454.208L363.126 463.153C363.434 465.35 363.587 467.944 361.923 469.413C361.334 469.889 360.655 470.241 359.926 470.448C356.277 471.726 352.334 471.726 348.468 471.867C336.601 472.237 324.605 473.63 312.904 471.547C311.446 471.439 310.078 470.798 309.064 469.746C308.629 469.044 308.419 468.226 308.462 467.401C308.506 466.577 308.8 465.786 309.307 465.133C310.344 463.853 311.657 462.822 313.148 462.118C316.131 460.52 319.229 459.166 322.314 457.799C322.506 457.683 322.735 457.646 322.954 457.697C323.248 457.786 323.338 458.157 323.428 458.463C323.758 459.544 324.313 460.543 325.057 461.395C325.8 462.247 326.715 462.933 327.742 463.408C327.742 463.408 338.15 465.491 342.592 464.073Z" fill="#BBBDC8"/>
<path opacity="0.1" d="M342.592 464.073C344.783 463.29 346.889 462.288 348.878 461.083L358.94 455.409C359.848 454.821 360.861 454.414 361.923 454.208L363.126 463.153C363.434 465.35 363.587 467.944 361.923 469.413C361.334 469.889 360.655 470.241 359.926 470.448C356.277 471.726 352.334 471.726 348.468 471.867C336.601 472.237 324.605 473.63 312.904 471.547C311.446 471.439 310.078 470.798 309.064 469.746C308.629 469.044 308.419 468.226 308.462 467.401C308.506 466.577 308.8 465.786 309.307 465.133C310.344 463.853 311.657 462.822 313.148 462.118C316.131 460.52 319.229 459.166 322.314 457.799C322.506 457.683 322.735 457.646 322.954 457.697C323.248 457.786 323.338 458.157 323.428 458.463C323.758 459.544 324.313 460.543 325.057 461.395C325.8 462.247 326.715 462.933 327.742 463.408C327.742 463.408 338.15 465.491 342.592 464.073Z" fill="#05B2BD"/>
<path d="M329.099 476.224C330.584 477.501 332.837 477.501 334.834 477.374L343.962 476.709C351.221 476.173 358.723 475.572 365.111 472.122C365.785 471.834 366.384 471.397 366.865 470.844C367.378 469.974 367.644 468.98 367.633 467.97C368.499 458.101 370.466 448.36 373.496 438.927C377.503 426.367 383.52 413.973 383.43 400.825V399.879C383.328 395.752 382.598 391.689 382.15 387.587C381.548 380.718 381.343 373.82 381.536 366.926C381.474 364.223 381.662 361.52 382.099 358.851C382.508 356.692 384.096 354.52 383.123 352.616C381.254 348.91 374.443 347.505 370.795 347.415C365.866 347.249 361.014 348.54 356.252 349.818C354.77 350.088 353.377 350.715 352.193 351.645C350.836 353.159 350.136 355.149 350.248 357.177C349.992 366.121 355.138 374.35 355.535 383.23C355.402 384.846 355.726 386.466 356.469 387.907C357.097 388.625 357.768 389.303 358.479 389.938C360.476 392.123 360.54 395.433 360.4 398.41C360.4 399.598 360.272 400.799 360.195 402C359.107 418.013 355.865 433.807 350.555 448.957C350.044 450.573 349.375 452.135 348.558 453.621C347.216 455.701 345.543 457.548 343.603 459.089C340.855 461.439 337.908 463.546 334.796 465.389C332.615 466.438 330.669 467.916 329.073 469.733C327.652 471.624 327.345 474.575 329.099 476.224Z" fill="#F7A7A8"/>
<path d="M329.099 476.224C330.584 477.501 332.837 477.501 334.834 477.374L343.962 476.709C351.221 476.173 358.722 475.572 365.111 472.122C365.785 471.834 366.384 471.397 366.865 470.844C367.378 469.974 367.644 468.98 367.633 467.97C368.499 458.101 370.466 448.36 373.496 438.927C377.503 426.367 383.52 413.973 383.43 400.825C375.716 401.681 367.956 402.065 360.195 401.975C359.107 417.988 355.865 433.782 350.555 448.931C350.041 450.547 349.373 452.108 348.558 453.595C347.216 455.675 345.543 457.523 343.603 459.064C340.855 461.413 337.908 463.521 334.796 465.363C332.615 466.413 330.669 467.89 329.073 469.707C327.652 471.598 327.345 474.575 329.099 476.224Z" fill="#EEEFF2"/>
<path d="M349.275 473.4C351.464 472.615 353.57 471.613 355.56 470.41L365.623 464.737C366.53 464.149 367.543 463.741 368.606 463.536L369.809 472.48C370.103 474.678 370.27 477.259 368.606 478.728C368.014 479.203 367.336 479.559 366.608 479.776C362.947 481.054 359.017 481.054 355.151 481.181C343.271 481.552 331.275 482.945 319.587 480.862C318.128 480.754 316.761 480.112 315.746 479.06C315.311 478.358 315.101 477.54 315.145 476.716C315.188 475.892 315.483 475.1 315.99 474.448C317.021 473.165 318.336 472.137 319.83 471.445C322.813 469.848 325.898 468.481 328.996 467.113C329.184 466.998 329.409 466.961 329.624 467.011C329.931 467.113 330.021 467.471 330.097 467.778C330.426 468.859 330.981 469.859 331.724 470.711C332.468 471.563 333.384 472.249 334.412 472.723C334.412 472.723 344.82 474.818 349.275 473.4Z" fill="#CCCCCC"/>
<path d="M316.207 205.881C319.459 201.895 319.549 196.298 319.472 191.174C319.472 189.168 319.472 187.111 319.331 185.08C319.24 181.344 318.846 177.622 318.153 173.951C317.8 172.188 317.329 170.451 316.745 168.75C317.193 168.648 317.628 168.558 318.089 168.482C325.088 167.102 332.29 167.102 339.289 168.482C341.307 168.593 343.314 168.853 345.293 169.261C345.789 169.374 346.221 169.677 346.497 170.105C346.842 170.82 346.138 172.877 345.639 174.717C345.361 175.542 345.201 176.403 345.165 177.273C345.232 178.094 345.356 178.909 345.537 179.713C345.857 181.182 346.266 182.639 346.458 184.134C346.804 186.69 346.458 189.245 346.663 191.8C346.663 194.4 347.694 196.895 349.531 198.739C338.165 199.705 326.968 202.105 316.207 205.881Z" fill="#F7A7A8"/>
<path opacity="0.1" d="M348.212 179.368C347.329 179.432 346.445 179.521 345.549 179.624C336.653 180.566 327.873 182.398 319.344 185.092L318.166 173.963V171.932C318.166 170.795 318.166 169.632 318.166 168.495C325.165 167.114 332.367 167.114 339.366 168.495C340.582 168.737 343.629 168.673 345.383 169.274C345.383 170.36 345.383 171.446 345.383 172.532C345.423 173.271 345.522 174.006 345.677 174.73C345.998 176.509 346.888 178.136 348.212 179.368Z" fill="#010101"/>
<path d="M331.314 182.422C344.959 182.422 356.021 171.381 356.021 157.762C356.021 144.142 344.959 133.101 331.314 133.101C317.668 133.101 306.606 144.142 306.606 157.762C306.606 171.381 317.668 182.422 331.314 182.422Z" fill="#F7A7A8"/>
<path d="M309.602 250.742C307.506 243.086 307.331 235.033 309.092 227.294C310.854 219.555 314.498 212.367 319.702 206.367C322.032 203.645 324.375 200.847 327.383 199.211C331.019 197.282 335.333 197.205 339.443 197.167C343.091 197.167 346.842 197.167 350.184 198.611C354.703 200.54 357.865 204.731 360.425 208.833C363.229 213.254 365.776 218.045 366.199 223.271C366.429 226.363 365.879 229.519 366.34 232.598C366.929 236.508 369.105 240.022 370.001 243.868C370.487 245.951 370.59 248.097 370.91 250.257C371.38 253.157 372.065 256.018 372.958 258.818C379.616 280.823 388.728 302.013 400.124 321.989C403.465 327.879 407.037 333.693 409.277 340.069C410.289 342.956 411.031 346.074 410.199 349.013C409.799 350.215 409.157 351.323 408.313 352.269C407.468 353.215 406.439 353.979 405.288 354.514C404.137 355.048 402.889 355.343 401.62 355.379C400.352 355.415 399.089 355.192 397.909 354.724C398.082 355.271 398.046 355.863 397.81 356.386C397.574 356.909 397.154 357.327 396.629 357.561C395.517 358.06 394.301 358.288 393.083 358.225L351.848 359.324C350.764 359.347 349.686 359.492 348.635 359.758C343.783 361.036 345.613 363.081 345.088 364.869C344.461 367.003 341.389 366.824 339.251 366.147C339.584 369.265 339.648 373.072 335.628 373.98C334.583 374.185 333.505 374.145 332.479 373.865C325.169 371.991 317.591 371.382 310.075 372.063C307.336 372.319 304.186 372.625 302.151 370.785C300.615 369.38 300.218 367.144 299.949 365.074C295.839 332.415 304.289 299.718 310.638 267.455C311.469 262.242 311.216 256.914 309.896 251.803L309.602 250.742Z" fill="#05B2BD"/>
<path d="M364.355 228.229C365.52 230.945 366.379 233.782 366.916 236.687C367.172 239.038 366.916 241.402 367.005 243.766C367.263 246.371 367.799 248.941 368.606 251.432C369.88 256.301 371.449 261.089 373.304 265.768C374.2 267.864 375.237 270.177 374.52 272.336C373.803 274.495 371.563 275.85 370.923 277.996C370.283 280.143 371.588 282.66 373.291 284.385C374.994 286.11 377.132 287.222 378.693 288.998C380.237 291.054 381.527 293.289 382.534 295.655C384.25 298.67 386.221 301.533 388.423 304.215L396.488 314.68C396.994 315.435 397.658 316.071 398.434 316.545C401.097 317.925 403.9 315.14 406.614 313.875C410.225 312.163 414.436 313.172 418.431 313.453C422.425 313.734 427.213 312.712 428.672 308.994C429.147 307.486 429.248 305.886 428.967 304.33C428.342 298.996 426.8 293.809 424.409 288.998C422.764 286.18 421.376 283.221 420.261 280.156C419.519 277.6 419.365 274.943 418.776 272.374C418.187 269.806 417.125 267.327 416.293 264.81C410.314 246.922 414.808 227.321 412.875 208.59C412.158 201.665 410.045 194.075 404.08 190.472C400.534 188.325 396.27 187.993 392.059 187.801L390.151 187.712L387.092 187.558C382.686 187.161 378.248 187.35 373.893 188.121C367.812 189.398 360.502 194.164 360.259 200.898C360.007 210.177 361.394 219.429 364.355 228.229Z" fill="#FFD567"/>
<path opacity="0.1" d="M387.117 187.443C387.953 191.979 388.381 196.58 388.397 201.192C388.728 214.338 389.719 227.46 391.367 240.508L392.302 249.171C392.339 250.783 392.803 252.356 393.646 253.732C394.089 254.402 394.774 254.877 395.558 255.057C396.342 255.238 397.165 255.111 397.858 254.703C398.483 251.601 398.643 248.423 398.332 245.274L397.333 225.162C397.013 218.633 396.667 212.091 395.874 205.6C395.217 200.569 394.264 195.582 393.019 190.663C392.79 189.644 392.469 188.647 392.059 187.686L390.164 187.597L387.117 187.443Z" fill="#010101"/>
<path d="M343.488 193.091C339.404 192.503 335.116 192.197 331.224 193.615C327.332 195.033 324.554 197.793 321.879 200.745C320.064 202.625 318.56 204.781 317.423 207.133C315.145 212.359 316.028 218.39 317.423 223.923C321.264 239.153 328.728 253.847 340.787 263.903C344.463 266.876 348.371 269.551 352.475 271.901C357.748 275.136 363.375 277.755 369.246 279.708C370.877 280.328 372.639 280.522 374.366 280.271C375.221 280.132 376.009 279.721 376.611 279.099C377.213 278.478 377.598 277.678 377.708 276.821C368.029 271.39 359.35 264.376 350.721 257.386C348.36 255.566 346.147 253.563 344.103 251.394C341.043 247.957 338.892 243.817 335.922 240.303C333.259 237.147 329.918 234.489 327.908 230.886C326.657 228.424 325.819 225.774 325.425 223.041C324.439 217.457 324.247 211.541 326.462 206.315C328.676 201.09 333.759 196.809 339.443 196.911C342.354 197.139 345.193 197.929 347.802 199.237L364.701 206.354C364.496 206.252 365.661 203.326 365.61 202.929C365.456 201.652 365.226 201.652 364.33 200.668C362.491 199.105 360.406 197.857 358.159 196.975C353.481 194.984 348.54 193.676 343.488 193.091Z" fill="#FFD567"/>
<path d="M309.87 153.098C314.69 152.029 319.149 149.731 322.813 146.428L319.28 164.93C322.808 163.325 326.229 161.494 329.521 159.448C329.995 167.907 329.304 176.57 326.18 184.441C323.056 192.312 317.295 199.365 309.537 202.866C316.399 204.016 322.57 199.032 328.74 195.774C333.003 193.461 340.262 195.838 344.935 194.433C348.954 193.491 352.845 192.067 356.521 190.19C363.139 186.357 364.65 175.062 365.981 167.536C367.313 160.01 366.109 152.203 363.882 144.869C363.138 142.273 362.13 139.76 360.873 137.369C359.241 134.384 357.035 131.75 354.382 129.616C351.729 127.482 348.68 125.891 345.411 124.933C342.142 123.976 338.715 123.671 335.328 124.035C331.94 124.4 328.658 125.427 325.668 127.058C325.041 127.403 324.388 127.773 323.824 128.157C317.667 132.207 311.957 138.161 307.259 143.796C306.593 144.575 303.841 147.348 304.698 148.524C305.812 149.929 312.38 145.968 313.468 145.368C313.135 146.569 311.087 152.791 309.87 153.098Z" fill="#A2626B"/>
<g opacity="0.1">
<path opacity="0.1" d="M337.651 368.639C336.608 368.854 335.528 368.819 334.501 368.536C327.193 366.656 319.614 366.047 312.098 366.735C309.358 366.99 306.209 367.297 304.174 365.457C302.637 364.052 302.24 361.816 301.972 359.746C297.862 327.087 306.311 294.39 312.661 262.127C313.492 256.914 313.239 251.586 311.919 246.475L311.624 245.44C309.161 236.643 309.308 227.322 312.047 218.607C307.492 228.74 306.627 240.143 309.602 250.844L309.909 251.867C311.218 256.984 311.466 262.315 310.638 267.532C304.314 299.794 295.878 332.517 299.962 365.15C300.218 367.208 300.627 369.456 302.151 370.862C304.161 372.727 307.272 372.421 310.088 372.14C317.6 371.451 325.174 372.061 332.479 373.941C333.51 374.224 334.593 374.259 335.641 374.043C338.918 373.302 339.481 370.632 339.392 367.987C338.856 368.308 338.266 368.529 337.651 368.639Z" fill="#010101"/>
<path opacity="0.1" d="M399.919 349.37C400.092 349.919 400.057 350.513 399.821 351.038C399.585 351.563 399.165 351.984 398.639 352.22C397.53 352.717 396.319 352.945 395.106 352.884L353.858 353.97C352.778 354 351.705 354.146 350.657 354.405C345.805 355.682 347.623 357.74 347.111 359.516C346.471 361.649 343.411 361.471 341.273 360.793C341.624 362.691 341.428 364.649 340.71 366.441C342.579 366.722 344.551 366.441 345.101 364.793C345.652 363.144 343.821 360.959 348.647 359.682C349.698 359.416 350.776 359.27 351.861 359.247L393.07 358.148C394.288 358.211 395.504 357.983 396.616 357.484C397.141 357.25 397.561 356.832 397.797 356.309C398.034 355.786 398.069 355.195 397.896 354.647C399.076 355.116 400.339 355.339 401.608 355.302C402.876 355.266 404.125 354.972 405.275 354.437C406.426 353.902 407.455 353.138 408.3 352.192C409.144 351.246 409.786 350.138 410.186 348.936C410.391 348.19 410.507 347.422 410.532 346.649C409.284 348.171 407.581 349.256 405.672 349.745C403.763 350.235 401.748 350.104 399.919 349.37Z" fill="#010101"/>
</g>
<path d="M344.602 210.123C348.149 217.649 351.286 225.361 353.999 233.225C356.188 239.613 358.121 246.219 357.391 252.889C356.661 259.559 352.718 266.279 346.305 268.375C343.53 269.115 340.661 269.442 337.791 269.346C330.938 269.506 324.099 270.057 317.308 270.994C314.142 271.52 310.95 271.874 307.745 272.055C303.226 272.208 298.694 271.493 294.188 271.863C286.878 272.451 279.939 275.862 272.604 275.862C271.724 275.907 270.846 275.741 270.044 275.377C268.8 274.49 267.947 273.158 267.662 271.659C266.638 268.413 265.832 264.682 267.56 261.744C269.698 258.128 274.537 257.399 278.736 257.08C288.201 256.415 297.666 255.947 307.131 255.674C315.222 255.444 323.978 255.138 330.251 250.039C330.673 249.734 331.019 249.336 331.262 248.877C331.496 248.096 331.464 247.261 331.173 246.5C328.69 236.806 327.625 226.804 328.011 216.806C327.97 215.906 328.202 215.016 328.676 214.25C329.24 213.621 329.981 213.176 330.801 212.972C336.401 211.183 342.395 211.019 348.084 212.5" fill="#F7A7A8"/>
<path d="M327.793 216.806C326.823 217.136 325.979 217.756 325.373 218.582C325.642 215.809 325.284 212.998 325.373 210.2C325.26 207.382 326.084 204.605 327.716 202.303C329.969 199.531 333.797 198.547 337.382 198.47C342.626 198.185 347.776 199.944 351.745 203.377C354.201 205.663 355.796 208.721 356.265 212.04C356.38 212.947 356.777 216.371 355.829 216.959C354.882 217.547 351.822 215.681 350.798 215.4C343.202 213.162 335.059 213.659 327.793 216.806Z" fill="#36C6CF"/>
<defs>
<linearGradient id="paint0_linear" x1="167.756" y1="484.363" x2="167.756" y2="124.068" gradientUnits="userSpaceOnUse">
<stop stop-color="#818181" stop-opacity="0.25"/>
<stop offset="0.54" stop-color="#818181" stop-opacity="0.12"/>
<stop offset="1" stop-color="#818181" stop-opacity="0.1"/>
</linearGradient>
<linearGradient id="paint1_linear" x1="57215.4" y1="309947" x2="57215.4" y2="411362" gradientUnits="userSpaceOnUse">
<stop stop-color="#818181" stop-opacity="0.25"/>
<stop offset="0.54" stop-color="#818181" stop-opacity="0.12"/>
<stop offset="1" stop-color="#818181" stop-opacity="0.1"/>
</linearGradient>
</defs>
</svg>
